Coordinates
version=1
nRows=16
nColumns=36
inDegrees=yes

Units are S.I. units (second, meters, Newtons, ...)
If the header above contains a line with 'inDegrees', this indicates whether rotational values are in degrees (yes) or radians (no).

endheader
time	pelvis_tilt	pelvis_list	pelvis_rotation	pelvis_tx	pelvis_ty	pelvis_tz	hip_flexion_r	hip_adduction_r	hip_rotation_r	knee_angle_r	knee_angle_r_beta	ankle_angle_r	subtalar_angle_r	mtp_angle_r	hip_flexion_l	hip_adduction_l	hip_rotation_l	knee_angle_l	knee_angle_l_beta	ankle_angle_l	subtalar_angle_l	mtp_angle_l	lumbar_extension	lumbar_bending	lumbar_rotation	arm_flex_r	arm_add_r	arm_rot_r	elbow_flex_r	pro_sup_r	arm_flex_l	arm_add_l	arm_rot_l	elbow_flex_l	pro_sup_l
      5.05000000	     -1.92146915	     -3.27691379	     52.55050097	     -0.09442696	      1.05534491	     -0.02678907	     -3.48016521	      2.06720283	      7.01205465	     18.21739006	      0.31795344	      8.73032921	     10.46206729	     -7.49999987	     13.22862364	     -0.56798516	      9.04216073	      8.30225872	      0.14490175	      4.40597384	      9.52830815	     -7.49999987	      1.70124006	     -3.79865234	     14.28498971	    100.45456374	    -21.59915290	     31.38645026	    127.21704796	     84.82176258	     -2.05549852	    -13.20382280	     18.21729093	     12.14254708	     36.13360933
      5.05416670	     -1.95681744	     -3.24003797	     52.36927426	     -0.09353696	      1.05041835	     -0.02586832	     -3.52343413	      2.06991591	      7.12004013	     18.08981392	      0.31572681	      9.16696581	     10.21749711	     -7.49999987	     13.23291403	     -0.52417517	      9.08153142	      8.03554546	      0.14024673	      4.32096081	      9.49236864	     -7.49999987	      1.38845277	     -3.83676343	     14.38414650	    101.17317922	    -21.12757445	     31.32217145	    126.94970092	     84.32030272	     -1.89668816	    -13.38504838	     21.09583240	     13.12928550	     37.39513650
      5.05833330	     -2.09367350	     -3.23287146	     52.18052156	     -0.09327956	      1.05172353	     -0.02442253	     -3.55723789	      2.03806572	      7.29388600	     17.84529154	      0.31145909	      9.46892657	      9.70436406	     -7.49999987	     13.23337391	     -0.45173435	      8.93792254	      7.71158161	      0.13459249	      4.20563270	      9.53717456	     -7.49999987	      1.37594937	     -3.94092630	     14.68520979	    101.36135174	    -20.93479757	     31.24475593	    126.91425213	     82.27757737	     -2.45465849	    -13.69372793	     21.20530394	     14.71266881	     39.57549189
      5.06250000	     -2.23172869	     -3.26915709	     52.59188735	     -0.09525371	      1.05486660	     -0.02064765	     -3.71634448	      2.12227052	      7.16641738	     17.17512208	      0.29976243	      9.79255987	      9.49008905	     -7.49999987	     13.60005668	     -0.30638951	      9.03839091	      7.64915598	      0.13350296	      3.89377736	      9.57387443	     -7.49999987	      1.42779544	     -4.11417226	     14.74223022	    101.40473166	    -21.01288909	     31.33550593	    126.87330683	     82.31755506	     -2.14902152	    -13.65546283	     21.37656515	     14.90914794	     39.64104354
      5.06666670	     -2.05844541	     -3.19009012	     53.76445108	     -0.09942004	      1.05735010	     -0.01674879	     -4.37276734	      2.40263118	      6.41334246	     16.00096523	      0.27926953	      9.65849364	      8.77382639	     -7.49999987	     13.85551119	     -0.16319453	     10.07901125	      7.69315908	      0.13427096	      3.25418376	      9.40247231	     -7.49999987	      1.34015899	     -4.10945933	     15.35443164	    101.32444953	    -22.81865296	     31.57610005	    127.41881585	     82.68974175	     -1.49694823	    -14.71288991	     28.24363742	     16.33577518	     42.25283355
      5.07083330	     -2.04110038	     -2.91419428	     54.47789490	     -0.09518500	      1.04865971	     -0.02091321	     -5.34163107	      2.43724125	      5.86356014	     15.09987815	      0.26354259	     10.18873061	      8.66221761	     -7.49999987	     13.76794009	      0.08071479	     10.48648475	      7.95466007	      0.13883501	      3.41766422	      9.63061494	     -7.49999987	      1.39032940	     -4.37770579	     15.84485293	    101.46941831	    -23.72939199	     31.28186992	    127.45834633	     82.38896702	     -1.45447516	    -15.20703550	     28.77586020	     17.59097078	     42.70817424
      5.07500000	     -1.99119162	     -2.72947776	     55.48108873	     -0.09886046	      1.05017283	     -0.01664799	     -6.11028521	      2.59444353	      5.24387212	     14.11168431	      0.24629535	     10.68056878	      8.31001426	     -7.49999987	     13.81591334	      0.32542573	     11.25787352	      7.92620538	      0.13833838	      3.21056270	      9.55462132	     -7.49999987	      1.33909016	     -4.53035731	     16.23620419	    101.72642748	    -24.86092455	     31.36414830	    127.41530495	     82.11970159	     -1.42874865	    -16.22849753	     30.54844274	     19.80396489	     43.67908243
      5.07916670	     -2.15037703	     -2.69486126	     55.74825506	     -0.09751721	      1.05176480	     -0.01657452	     -6.49508621	      2.57349305	      5.18578814	     13.23641440	      0.23101901	     11.10285268	      8.32996358	     -7.49999987	     14.00059465	      0.46191636	     11.50955415	      8.00006324	      0.13962744	      3.17452712	      9.53439943	     -7.49999987	      1.44596679	     -4.55392180	     16.77396086	    102.10417864	    -25.05912905	     31.51264292	    127.05797981	     80.46427806	     -1.73901278	    -16.99363601	     31.10148949	     21.22451838	     45.69630059
      5.08333330	     -2.14050756	     -2.67651702	     55.99565657	     -0.10095424	      1.05102125	     -0.01317675	     -6.71062058	      2.66870784	      5.24643568	     12.61902985	      0.22024362	     11.34156384	      8.14349058	     -7.49999987	     14.32488863	      0.53253743	     11.82950861	      8.18868443	      0.14291950	      2.96462203	      9.33638681	     -7.49999987	      1.34484268	     -4.37957690	     17.26309412	    102.63349564	    -25.26703016	     31.58485735	    126.56980298	     79.75816146	     -2.06848942	    -17.64659468	     31.53716827	     22.76724946	     46.86597834
      5.08750000	     -2.12994457	     -2.69906297	     56.61574072	     -0.10449376	      1.05094047	     -0.00925625	     -6.90407268	      2.82178732	      5.03387578	     11.83284962	      0.20652219	     11.55768668	      7.82951985	     -7.49999987	     14.74448669	      0.68312470	     12.51634618	      8.29198379	      0.14472242	      2.58355201	      9.13811427	     -7.49999987	      1.33105967	     -4.15641206	     17.82743275	    103.12805383	    -25.89047663	     32.03040752	    126.04778719	     79.96013206	     -1.66805104	    -18.25559253	     33.78928654	     23.40447605	     49.75953639
      5.09166670	     -2.09488799	     -2.69705099	     57.02630773	     -0.10462403	      1.05088041	     -0.00683403	     -7.11419056	      3.00514718	      5.04860541	     11.19590581	      0.19540542	     11.53055622	      7.67749583	     -7.49999987	     14.99786889	      0.72628561	     12.84251143	      8.29397301	      0.14475714	      2.24481928	      9.15251078	     -7.49999987	      1.11693974	     -3.98905741	     18.16360942	    103.45406843	    -26.21199805	     32.15049944	    125.73324701	     79.59464916	     -1.80427184	    -18.81639792	     33.84745046	     24.76444430	     50.35623573
      5.09583330	     -2.05669727	     -2.71692093	     57.45606395	     -0.10554575	      1.05203263	     -0.00672711	     -7.40919011	      3.16098477	      5.02023845	     10.49428102	      0.18315976	     11.15471624	      7.67300441	     -7.49999987	     15.12314379	      0.76222763	     13.19771365	      8.12765977	      0.14185442	      1.85782769	      9.22918189	     -7.49999987	      1.00235966	     -3.78607644	     18.27623994	    103.56371333	    -26.25692273	     32.31321163	    125.32588401	     78.26749776	     -1.94828990	    -19.06356755	     33.58549167	     25.45019035	     51.45132452
      5.10000000	     -2.06550992	     -2.78974688	     58.40319826	     -0.10900030	      1.04716943	     -0.00203819	     -7.43007193	      3.38791886	      4.54066822	     10.15340055	      0.17721027	     11.13112867	      7.51560897	     -7.49999987	     15.51035067	      0.93229940	     13.67683595	      8.12589540	      0.14182363	      1.52445248	      9.37271832	     -7.49999987	      0.93914282	     -3.64089721	     18.24037265	    104.07139574	    -26.64190828	     32.65871562	    124.89049412	     80.14685656	     -1.55092248	    -19.62653900	     35.23687691	     26.04064350	     53.20631647
      5.10416670	     -2.03475210	     -2.81062632	     59.26863463	     -0.11058422	      1.04352722	     -0.00040014	     -7.42858475	      3.57997549	      4.17240205	     10.02286344	      0.17493197	     11.26280103	      7.13757767	     -7.49999987	     15.79151129	      1.07012107	     14.06315223	      8.11809662	      0.14168751	      1.58105926	      9.59014706	     -7.49999987	      0.61780285	     -3.55627447	     17.68511325	    104.71710697	    -26.40400484	     32.66949119	    124.31013522	     79.31550131	     -1.61427008	    -19.98195057	     35.05282948	     26.71124589	     53.59421711
      5.10833330	     -2.01389960	     -2.87498216	     60.14222462	     -0.11234819	      1.05384484	      0.00055519	     -7.58142661	      3.78961455	      3.80989423	      9.54092987	      0.16652064	     10.97140690	      6.87292045	     -7.49999987	     15.92804957	      1.23355095	     14.76787761	      7.90909917	      0.13803982	      1.02921515	      9.60735328	     -7.49999987	      0.50078538	     -3.34626428	     17.40366434	    104.98771406	    -26.42725067	     33.14261178	    123.91453855	     79.91341076	     -1.60322366	    -20.40352344	     35.46989414	     27.41512071	     54.18044345
      5.11250000	     -1.96521249	     -3.01577188	     60.41345626	     -0.11824167	      1.04886414	      0.00649151	     -7.34751410	      3.92176004	      3.89623750	      9.33741341	      0.16296861	     11.04826266	      6.63744095	     -7.49999987	     16.55174449	      1.25505315	     14.87744226	      8.28082674	      0.14452769	      0.78523217	      9.68059156	     -7.49999987	      0.09856853	     -2.98427273	     17.23057614	    105.68221590	    -25.93352751	     33.49625766	    123.76550834	     79.59493402	     -1.67654845	    -20.36515777	     35.17518166	     27.77985683	     54.80451654
